<svg width="266" height="190" viewBox="0 0 266 190" fill="none" xmlns="http://www.w3.org/2000/svg">
<path d="M18.1818 37H9.09091V41.5H4.54545V46H0V59.5H4.54545V64H9.09091V68.5H13.6364V73H18.1818V77.5H22.7273V82H27.2727V77.5H31.8182V73H36.3636V68.5H40.9091V64H45.4545V59.5H50V46H45.4545V41.5H40.9091V37H31.8182V41.5H27.2727V46H22.7273V41.5H18.1818V37ZM18.1818 41.5V46H22.7273V50.5H27.2727V46H31.8182V41.5H40.9091V46H45.4545V59.5H40.9091V64H36.3636V68.5H31.8182V73H27.2727V77.5H22.7273V73H18.1818V68.5H13.6364V64H9.09091V59.5H4.54545V46H9.09091V41.5H18.1818Z" fill="#FFECE2"/>
<path d="M245.636 162H239.818V164.8H236.909V167.6H234V176H236.909V178.8H239.818V181.6H242.727V184.4H245.636V187.2H248.545V190H251.455V187.2H254.364V184.4H257.273V181.6H260.182V178.8H263.091V176H266V167.6H263.091V164.8H260.182V162H254.364V164.8H251.455V167.6H248.545V164.8H245.636V162ZM245.636 164.8V167.6H248.545V170.4H251.455V167.6H254.364V164.8H260.182V167.6H263.091V176H260.182V178.8H257.273V181.6H254.364V184.4H251.455V187.2H248.545V184.4H245.636V181.6H242.727V178.8H239.818V176H236.909V167.6H239.818V164.8H245.636Z" fill="#FFECE2"/>
<path d="M220 0H208V6H202V12H196V30H202V36H208V42H214V48H220V54H226V60H232V54H238V48H244V42H250V36H256V30H262V12H256V6H250V0H238V6H232V12H226V6H220V0ZM220 6V12H226V18H232V12H238V6H250V12H256V30H250V36H244V42H238V48H232V54H226V48H220V42H214V36H208V30H202V12H208V6H220Z" fill="#FFECE2"/>
</svg>
