<?xml version="1.0" standalone="no"?>
<!DOCTYPE svg PUBLIC "-//W3C//DTD SVG 20010904//EN"
 "http://www.w3.org/TR/2001/REC-SVG-20010904/DTD/svg10.dtd">
<svg version="1.0" xmlns="http://www.w3.org/2000/svg"
 width="736.000000pt" height="736.000000pt" viewBox="0 0 736.000000 736.000000"
 preserveAspectRatio="xMidYMid meet">
<metadata>
Created by potrace 1.14, written by Peter Selinger 2001-2017
</metadata>
<g transform="translate(0.000000,736.000000) scale(0.100000,-0.100000)"
fill="#000000" stroke="none">
<path d="M5388 6805 c-2 -3 -54 -8 -114 -11 -123 -6 -179 -11 -179 -14 0 -1
-9 -4 -20 -5 -18 -3 -33 -6 -90 -18 -100 -23 -271 -79 -321 -105 -10 -5 -41
-20 -69 -33 -27 -13 -52 -26 -55 -29 -3 -3 -30 -18 -60 -34 -30 -17 -84 -50
-120 -75 -60 -42 -401 -302 -426 -326 -6 -5 -33 -28 -60 -50 -27 -22 -67 -57
-89 -78 -22 -21 -53 -46 -70 -55 -62 -36 -149 -24 -205 29 -24 22 -107 92
-154 129 -10 8 -26 22 -35 31 -9 8 -34 29 -56 45 -22 16 -45 34 -51 39 -6 6
-27 21 -47 35 -20 14 -37 28 -37 33 0 4 -5 7 -10 7 -6 0 -16 5 -23 10 -36 31
-99 76 -147 108 -30 20 -57 39 -60 42 -17 19 -210 124 -295 161 -104 45 -246
87 -355 105 -19 4 -42 8 -50 9 -32 6 -118 16 -170 20 -30 2 -57 4 -60 5 -3 1
-9 1 -15 0 -5 -1 -59 -4 -120 -6 -60 -2 -126 -6 -145 -9 -77 -10 -116 -15
-140 -20 -14 -3 -36 -8 -50 -10 -14 -3 -56 -14 -95 -25 -38 -11 -79 -22 -89
-25 -72 -17 -367 -148 -374 -167 -2 -4 -8 -8 -14 -8 -23 0 -224 -142 -316
-224 -112 -100 -292 -313 -292 -344 0 -7 -4 -12 -9 -12 -11 0 -45 -61 -107
-190 -25 -52 -52 -107 -60 -122 -8 -14 -14 -35 -14 -46 0 -12 -5 -24 -10 -27
-6 -4 -8 -11 -5 -16 4 -5 2 -9 -3 -9 -5 0 -9 -6 -9 -12 0 -7 -8 -38 -17 -68
-30 -102 -53 -220 -60 -306 -2 -23 -6 -46 -9 -51 -6 -9 0 -445 6 -478 3 -17 9
-60 21 -157 1 -10 5 -21 9 -24 4 -4 7 -19 7 -33 0 -72 84 -357 180 -611 85
-227 110 -282 190 -425 19 -33 38 -69 44 -80 6 -11 28 -46 49 -78 20 -31 37
-61 37 -66 0 -5 3 -11 8 -13 4 -1 27 -32 51 -68 61 -91 105 -154 111 -160 3
-3 21 -26 40 -53 19 -26 43 -57 53 -70 10 -12 31 -37 45 -56 46 -58 141 -174
190 -229 46 -52 90 -102 203 -226 120 -133 547 -551 678 -665 10 -9 49 -43 86
-76 37 -33 78 -69 92 -80 15 -11 36 -30 48 -42 13 -12 26 -19 29 -16 3 4 6 2
6 -4 0 -6 33 -37 73 -68 39 -32 77 -63 82 -69 6 -6 28 -24 50 -40 22 -17 42
-32 45 -35 3 -4 32 -26 65 -51 33 -25 71 -55 85 -67 14 -13 28 -23 32 -23 3 0
13 -6 20 -13 7 -7 67 -52 133 -99 66 -48 127 -92 135 -100 9 -7 28 -19 43 -27
15 -8 27 -18 27 -23 0 -4 5 -8 10 -8 6 0 50 -26 98 -58 79 -53 168 -108 247
-154 62 -36 132 -65 184 -78 95 -22 236 2 323 57 21 12 42 23 48 23 5 0 10 5
10 10 0 6 6 10 14 10 8 0 21 6 28 13 19 17 69 47 91 54 9 3 17 9 17 14 0 5 5
9 12 9 6 0 26 11 44 25 18 14 35 25 38 25 3 0 80 51 171 113 92 61 174 117
183 122 9 6 19 13 22 16 3 3 39 30 80 59 41 30 96 70 121 89 25 20 58 45 73
56 31 22 191 149 246 195 86 72 148 125 183 156 21 19 40 34 42 34 2 0 15 10
28 22 12 13 68 64 122 113 132 120 409 397 515 515 47 52 87 97 90 100 3 3 30
34 60 70 30 36 57 67 61 70 3 3 32 39 65 80 32 41 62 77 67 78 4 2 7 10 7 18
0 8 4 14 8 14 11 0 157 200 266 365 123 185 126 190 126 199 0 4 13 26 28 49
64 94 201 364 286 564 64 150 78 184 82 198 2 6 17 48 34 95 35 95 85 281 95
350 3 25 8 52 10 60 31 116 37 507 10 640 -3 14 -7 41 -10 60 -3 19 -7 46 -11
60 -3 14 -8 36 -11 50 -11 54 -66 227 -89 277 -13 30 -24 57 -24 61 -4 17 -57
122 -91 179 -21 35 -40 72 -44 83 -3 11 -10 20 -14 20 -3 0 -15 15 -26 33 -64
107 -227 288 -355 393 -19 16 -41 34 -48 41 -72 68 -361 237 -454 265 -21 6
-38 15 -38 20 0 4 -3 7 -7 6 -5 -1 -33 6 -63 17 -30 10 -59 20 -65 21 -35 9
-54 14 -83 23 -18 5 -35 10 -37 10 -3 1 -6 1 -7 2 -2 1 -14 2 -28 4 -14 1 -56
8 -95 15 -38 6 -103 13 -144 16 -41 3 -77 7 -81 9 -4 3 -9 2 -12 0z"/>
</g>
</svg>
