<svg width="46" height="41" viewBox="0 0 46 41" fill="none" xmlns="http://www.w3.org/2000/svg">
<path d="M21.1908 40.3274C21.6173 40.5626 22.0976 40.6832 22.5847 40.6772C23.0717 40.6712 23.5489 40.5389 23.9695 40.2932C29.7935 36.9652 39.9108 29.305 43.8839 19.3551C49.7177 6.39899 36.0222 -3.94251 26.5582 3.49512C25.5702 4.27187 24.3287 5.16074 23.4755 6.00087C23.0888 6.38112 22.4079 6.42012 22.0065 6.05612C20.8853 5.03237 19.1287 3.72262 18.0009 2.96049C9.9328 -2.49951 -4.74908 4.69762 1.51367 20.0555C3.80817 26.9487 14.7412 36.728 21.1924 40.329L21.1908 40.3274Z" fill="url(#paint0_radial_103_2)"/>
<path d="M21.1908 40.3274C21.6173 40.5626 22.0976 40.6832 22.5847 40.6772C23.0717 40.6712 23.5489 40.5389 23.9695 40.2932C29.7935 36.9652 39.9108 29.305 43.8839 19.3551C49.7177 6.39899 36.0222 -3.94251 26.5582 3.49512C25.5702 4.27187 24.3287 5.16074 23.4755 6.00087C23.0888 6.38112 22.4079 6.42012 22.0065 6.05612C20.8853 5.03237 19.1287 3.72262 18.0009 2.96049C9.9328 -2.49951 -4.74908 4.69762 1.51367 20.0555C3.80817 26.9487 14.7412 36.728 21.1924 40.329L21.1908 40.3274Z" fill="url(#paint1_radial_103_2)"/>
<path d="M21.1908 40.3274C21.6173 40.5626 22.0976 40.6832 22.5847 40.6772C23.0717 40.6712 23.5489 40.5389 23.9695 40.2932C29.7935 36.9652 39.9108 29.305 43.8839 19.3551C49.7177 6.39899 36.0222 -3.94251 26.5582 3.49512C25.5702 4.27187 24.3287 5.16074 23.4755 6.00087C23.0888 6.38112 22.4079 6.42012 22.0065 6.05612C20.8853 5.03237 19.1287 3.72262 18.0009 2.96049C9.9328 -2.49951 -4.74908 4.69762 1.51367 20.0555C3.80817 26.9487 14.7412 36.728 21.1924 40.329L21.1908 40.3274Z" fill="url(#paint2_linear_103_2)"/>
<path d="M21.1908 40.3274C21.6173 40.5626 22.0976 40.6832 22.5847 40.6772C23.0717 40.6712 23.5489 40.5389 23.9695 40.2932C29.7935 36.9652 39.9108 29.305 43.8839 19.3551C49.7177 6.39899 36.0222 -3.94251 26.5582 3.49512C25.5702 4.27187 24.3287 5.16074 23.4755 6.00087C23.0888 6.38112 22.4079 6.42012 22.0065 6.05612C20.8853 5.03237 19.1287 3.72262 18.0009 2.96049C9.9328 -2.49951 -4.74908 4.69762 1.51367 20.0555C3.80817 26.9487 14.7412 36.728 21.1924 40.329L21.1908 40.3274Z" fill="url(#paint3_radial_103_2)"/>
<path d="M21.1908 40.3274C21.6173 40.5626 22.0976 40.6832 22.5847 40.6772C23.0717 40.6712 23.5489 40.5389 23.9695 40.2932C29.7935 36.9652 39.9108 29.305 43.8839 19.3551C49.7177 6.39899 36.0222 -3.94251 26.5582 3.49512C25.5702 4.27187 24.3287 5.16074 23.4755 6.00087C23.0888 6.38112 22.4079 6.42012 22.0065 6.05612C20.8853 5.03237 19.1287 3.72262 18.0009 2.96049C9.9328 -2.49951 -4.74908 4.69762 1.51367 20.0555C3.80817 26.9487 14.7412 36.728 21.1924 40.329L21.1908 40.3274Z" fill="url(#paint4_linear_103_2)"/>
<path d="M21.1908 40.3274C21.6173 40.5626 22.0976 40.6832 22.5847 40.6772C23.0717 40.6712 23.5489 40.5389 23.9695 40.2932C29.7935 36.9652 39.9108 29.305 43.8839 19.3551C49.7177 6.39899 36.0222 -3.94251 26.5582 3.49512C25.5702 4.27187 24.3287 5.16074 23.4755 6.00087C23.0888 6.38112 22.4079 6.42012 22.0065 6.05612C20.8853 5.03237 19.1287 3.72262 18.0009 2.96049C9.9328 -2.49951 -4.74908 4.69762 1.51367 20.0555C3.80817 26.9487 14.7412 36.728 21.1924 40.329L21.1908 40.3274Z" fill="url(#paint5_linear_103_2)"/>
<g filter="url(#filter0_f_103_2)">
<path d="M23.0255 9.9025V20.9899C23.0255 22.4605 24.813 23.1641 25.7457 22.0266C28.5537 18.5946 30.8856 14.4752 29.1468 10.5005C28.2466 8.44162 25.6515 8.102 23.8948 8.60412C23.3342 8.765 23.0255 9.31912 23.0255 9.90412V9.9025Z" fill="#FF6826"/>
</g>
<g filter="url(#filter1_f_103_2)">
<path d="M38.6706 17.7688C42.1005 14.4345 42.7633 9.55308 40.1509 6.86578C37.5385 4.17849 32.6403 4.70297 29.2104 8.03724C25.7805 11.3715 25.1177 16.253 27.7301 18.9403C30.3425 21.6276 35.2407 21.1031 38.6706 17.7688Z" fill="url(#paint6_radial_103_2)" fill-opacity="0.6"/>
</g>
<g filter="url(#filter2_f_103_2)">
<path d="M34.4631 3.9521C35.9707 4.14161 37.2251 4.03826 37.2649 3.72126C37.3048 3.40426 36.115 2.99365 34.6075 2.80414C33.0999 2.61463 31.8455 2.71798 31.8057 3.03498C31.7658 3.35198 32.9556 3.76259 34.4631 3.9521Z" fill="#FF8557"/>
</g>
<g filter="url(#filter3_f_103_2)">
<path d="M11.7252 3.11647C13.0884 3.09989 14.1912 2.9053 14.1885 2.68185C14.1858 2.4584 13.0785 2.2907 11.7154 2.30728C10.3522 2.32387 9.2494 2.51845 9.25211 2.74191C9.25483 2.96536 10.3621 3.13306 11.7252 3.11647Z" fill="#FF8557"/>
</g>
<g filter="url(#filter4_f_103_2)">
<path d="M20.5863 9.064L21.095 25.7202C9.92308 14.8522 7.77483 7.22125 12.0551 5.5085C16.1176 3.8835 19.3676 6.52412 20.5863 9.064Z" fill="url(#paint7_radial_103_2)" fill-opacity="0.75"/>
</g>
<path d="M23.38 15.066C23.5853 15.066 23.744 15.122 23.856 15.234C23.9773 15.346 24.038 15.4907 24.038 15.668C24.038 15.78 24.01 15.9013 23.954 16.032L19.81 25.538C19.6887 25.846 19.4693 26 19.152 26C18.8533 26 18.634 25.846 18.494 25.538L14.392 16.158C14.3173 15.962 14.28 15.7987 14.28 15.668C14.28 15.4813 14.336 15.3367 14.448 15.234C14.5693 15.122 14.7327 15.066 14.938 15.066C15.2647 15.066 15.4887 15.2107 15.61 15.5L19.138 23.956L22.722 15.5C22.7873 15.332 22.8713 15.22 22.974 15.164C23.0767 15.0987 23.212 15.066 23.38 15.066ZM27.1783 25.272C27.1783 25.4773 27.1083 25.65 26.9683 25.79C26.8283 25.93 26.6556 26 26.4503 26C26.2543 26 26.0816 25.93 25.9323 25.79C25.7923 25.65 25.7223 25.4773 25.7223 25.272V15.794C25.7223 15.5887 25.7923 15.416 25.9323 15.276C26.0816 15.136 26.2543 15.066 26.4503 15.066C26.6556 15.066 26.8283 15.136 26.9683 15.276C27.1083 15.416 27.1783 15.5887 27.1783 15.794V19.994L31.8123 15.36C31.9243 15.248 32.0223 15.1733 32.1063 15.136C32.1996 15.0893 32.3023 15.066 32.4143 15.066C32.6103 15.066 32.7596 15.1267 32.8623 15.248C32.9743 15.36 33.0303 15.5 33.0303 15.668C33.0303 15.9107 32.9416 16.1207 32.7643 16.298L29.1943 19.882L32.8343 24.838C32.9276 24.9687 32.9743 25.118 32.9743 25.286C32.9743 25.4727 32.9136 25.6407 32.7923 25.79C32.6709 25.93 32.5169 26 32.3303 26C32.0689 26 31.8683 25.8973 31.7283 25.692L28.1863 20.89L27.1783 21.898V25.272Z" fill="white"/>
<defs>
<filter id="filter0_f_103_2" x="21.0255" y="6.39857" width="10.7196" height="18.1921" filterUnits="userSpaceOnUse" color-interpolation-filters="sRGB">
<feFlood flood-opacity="0" result="BackgroundImageFix"/>
<feBlend mode="normal" in="SourceGraphic" in2="BackgroundImageFix" result="shape"/>
<feGaussianBlur stdDeviation="1" result="effect1_foregroundBlur_103_2"/>
</filter>
<filter id="filter1_f_103_2" x="24.6335" y="3.64879" width="18.614" height="18.5085" filterUnits="userSpaceOnUse" color-interpolation-filters="sRGB">
<feFlood flood-opacity="0" result="BackgroundImageFix"/>
<feBlend mode="normal" in="SourceGraphic" in2="BackgroundImageFix" result="shape"/>
<feGaussianBlur stdDeviation="0.75" result="effect1_foregroundBlur_103_2"/>
</filter>
<filter id="filter2_f_103_2" x="29.8047" y="0.70929" width="9.46124" height="5.33766" filterUnits="userSpaceOnUse" color-interpolation-filters="sRGB">
<feFlood flood-opacity="0" result="BackgroundImageFix"/>
<feBlend mode="normal" in="SourceGraphic" in2="BackgroundImageFix" result="shape"/>
<feGaussianBlur stdDeviation="1" result="effect1_foregroundBlur_103_2"/>
</filter>
<filter id="filter3_f_103_2" x="7.75214" y="0.806152" width="7.93634" height="3.81145" filterUnits="userSpaceOnUse" color-interpolation-filters="sRGB">
<feFlood flood-opacity="0" result="BackgroundImageFix"/>
<feBlend mode="normal" in="SourceGraphic" in2="BackgroundImageFix" result="shape"/>
<feGaussianBlur stdDeviation="0.75" result="effect1_foregroundBlur_103_2"/>
</filter>
<filter id="filter4_f_103_2" x="7.00488" y="2.0085" width="17.0901" height="26.7117" filterUnits="userSpaceOnUse" color-interpolation-filters="sRGB">
<feFlood flood-opacity="0" result="BackgroundImageFix"/>
<feBlend mode="normal" in="SourceGraphic" in2="BackgroundImageFix" result="shape"/>
<feGaussianBlur stdDeviation="1.5" result="effect1_foregroundBlur_103_2"/>
</filter>
<radialGradient id="paint0_radial_103_2" cx="0" cy="0" r="1" gradientUnits="userSpaceOnUse" gradientTransform="translate(24.5764 12.8354) rotate(108.641) scale(39.9266 58.8049)">
<stop stop-color="#FF753D"/>
<stop offset="1" stop-color="#FF7670"/>
</radialGradient>
<radialGradient id="paint1_radial_103_2" cx="0" cy="0" r="1" gradientUnits="userSpaceOnUse" gradientTransform="translate(26.3032 21.064) rotate(-152.069) scale(36.2102 51.1882)">
<stop offset="0.41" stop-color="#B13E20" stop-opacity="0"/>
<stop offset="1" stop-color="#B34E33"/>
</radialGradient>
<linearGradient id="paint2_linear_103_2" x1="18.8898" y1="19.438" x2="4.26317" y2="35.1794" gradientUnits="userSpaceOnUse">
<stop offset="0.151" stop-color="#D8505A" stop-opacity="0"/>
<stop offset="1" stop-color="#B73D46"/>
</linearGradient>
<radialGradient id="paint3_radial_103_2" cx="0" cy="0" r="1" gradientUnits="userSpaceOnUse" gradientTransform="translate(21.7482 15.3267) rotate(90) scale(32.1737 42.9452)">
<stop offset="0.671" stop-color="#FF79CC" stop-opacity="0"/>
<stop offset="0.934" stop-color="#FF79CC"/>
</radialGradient>
<linearGradient id="paint4_linear_103_2" x1="25.2988" y1="19.0919" x2="38.3199" y2="34.5879" gradientUnits="userSpaceOnUse">
<stop offset="0.694" stop-color="#FF7AF2" stop-opacity="0"/>
<stop offset="0.934" stop-color="#FFBCE6"/>
</linearGradient>
<linearGradient id="paint5_linear_103_2" x1="23.6852" y1="19.737" x2="8.4053" y2="36.9539" gradientUnits="userSpaceOnUse">
<stop offset="0.694" stop-color="#FF7AF2" stop-opacity="0"/>
<stop offset="0.934" stop-color="#FFBCE6"/>
</linearGradient>
<radialGradient id="paint6_radial_103_2" cx="0" cy="0" r="1" gradientUnits="userSpaceOnUse" gradientTransform="translate(39.9839 6.70682) rotate(129.125) scale(14.1439 17.7949)">
<stop stop-color="#FFC289"/>
<stop offset="1" stop-color="#FFC289" stop-opacity="0"/>
</radialGradient>
<radialGradient id="paint7_radial_103_2" cx="0" cy="0" r="1" gradientUnits="userSpaceOnUse" gradientTransform="translate(30.468 9.68799) rotate(-168.759) scale(16.6714 47.0202)">
<stop stop-color="#FFC289"/>
<stop offset="1" stop-color="#FFC289" stop-opacity="0"/>
</radialGradient>
</defs>
</svg>
