<svg width="24" height="25" viewBox="0 0 24 25" fill="none" xmlns="http://www.w3.org/2000/svg">
<path fill-rule="evenodd" clip-rule="evenodd" d="M12 23.5C18.0751 23.5 23 18.5751 23 12.5C23 6.42487 18.0751 1.5 12 1.5C5.92487 1.5 1 6.42487 1 12.5C1 18.5751 5.92487 23.5 12 23.5ZM12.9541 10.357C12.7275 9.99433 12.3195 9.813 11.7301 9.813C11.3448 9.813 10.9991 9.90367 10.6931 10.085C10.3985 10.2663 10.1378 10.4987 9.91113 10.782C9.69579 11.054 9.52013 11.343 9.38412 11.649C9.24813 11.955 9.15746 12.227 9.11213 12.465L10.0301 12.737C10.1775 12.227 10.3191 11.8757 10.4551 11.683C10.5911 11.4903 10.7215 11.394 10.8461 11.394C10.9141 11.394 10.9765 11.4223 11.0331 11.479C11.0898 11.5243 11.1181 11.6433 11.1181 11.836C11.1181 12.108 11.0898 12.4537 11.0331 12.873C10.9765 13.281 10.9085 13.723 10.8291 14.199C10.7611 14.675 10.6988 15.1397 10.6421 15.593C10.5855 16.0463 10.5571 16.4373 10.5571 16.766C10.5571 17.3667 10.6705 17.837 10.8971 18.177C11.1351 18.517 11.5658 18.687 12.1891 18.687C12.5745 18.687 12.9145 18.5963 13.2091 18.415C13.5151 18.2337 13.7758 18.007 13.9911 17.735C14.2065 17.4517 14.3765 17.157 14.5011 16.851C14.6371 16.545 14.7278 16.273 14.7731 16.035L13.8551 15.763C13.7078 16.273 13.5661 16.6243 13.4301 16.817C13.2941 17.0097 13.1581 17.106 13.0221 17.106C12.9655 17.106 12.9088 17.0777 12.8521 17.021C12.7955 16.9643 12.7671 16.8453 12.7671 16.664C12.7671 16.4713 12.7955 16.1653 12.8521 15.746C12.9088 15.3267 12.9711 14.862 13.0391 14.352C13.1071 13.842 13.1695 13.3547 13.2261 12.89C13.2828 12.4253 13.3111 12.057 13.3111 11.785C13.3111 11.1843 13.1921 10.7083 12.9541 10.357ZM13.2261 5.937C12.9995 5.665 12.6991 5.529 12.3251 5.529C11.9851 5.529 11.6791 5.665 11.4071 5.937C11.1351 6.209 10.9878 6.54333 10.9651 6.94C10.9538 7.32533 11.0615 7.654 11.2881 7.926C11.5261 8.18667 11.8378 8.317 12.2231 8.317C12.5971 8.317 12.9088 8.18667 13.1581 7.926C13.4075 7.654 13.5378 7.32533 13.5491 6.94C13.5718 6.54333 13.4641 6.209 13.2261 5.937Z" fill="url(#paint0_linear_19_2025)"/>
<defs>
<linearGradient id="paint0_linear_19_2025" x1="12" y1="1.5" x2="12" y2="23.5" gradientUnits="userSpaceOnUse">
<stop stop-color="#4055FF"/>
<stop offset="1" stop-color="#2D44FF"/>
</linearGradient>
</defs>
</svg>
